<svg width="200" height="200" viewBox="0 0 200 200" xmlns="http://www.w3.org/2000/svg">
  <g fill="none" fill-rule="evenodd">
    <path d="M100 20v160" stroke="#F28C38" stroke-width="4" stroke-linecap="round" stroke-dasharray="5,5"/>
    <path d="M60 40h80v20H60z" fill="#F28C38" opacity="0.2"/>
    <path d="M70 60h60v100H70z" fill="#F28C38" opacity="0.1"/>
    
    <!-- Robotic Arm Base -->
    <rect x="30" y="160" width="140" height="20" rx="5" fill="#4A4A4A"/>
    
    <!-- Robotic Arm Segments -->
    <path d="M100 160v-40M70 120h60M70 120v-30M70 90h60M130 90v-30" stroke="#F28C38" stroke-width="6" stroke-linecap="round" stroke-linejoin="round"/>
    
    <!-- Robotic Arm Joint -->
    <circle cx="70" cy="120" r="8" fill="#F28C38"/>
    <circle cx="130" cy="120" r="8" fill="#F28C38"/>
    <circle cx="70" cy="90" r="8" fill="#F28C38"/>
    <circle cx="130" cy="90" r="8" fill="#F28C38"/>
    
    <!-- Handpiece -->
    <path d="M130 60v-20" stroke="#F28C38" stroke-width="6" stroke-linecap="round"/>
    <rect x="120" y="40" width="20" height="30" rx="3" fill="#4A4A4A"/>
    <rect x="125" y="30" width="10" height="10" rx="2" fill="#4A4A4A"/>
  </g>
</svg>
